<svg width="16" height="17" viewBox="0 0 16 17" fill="none" xmlns="http://www.w3.org/2000/svg">
<path d="M7.9987 15.1693C11.6807 15.1693 14.6654 12.1846 14.6654 8.5026C14.6654 4.8206 11.6807 1.83594 7.9987 1.83594C4.3167 1.83594 1.33203 4.8206 1.33203 8.5026C1.33203 12.1846 4.3167 15.1693 7.9987 15.1693Z" stroke="white" stroke-width="1.5" stroke-linecap="round" stroke-linejoin="round"/>
<path d="M5.33371 2.5H6.00037C4.7004 6.39438 4.7004 10.6056 6.00037 14.5H5.33371M10.0004 2.5C11.3004 6.39438 11.3004 10.6056 10.0004 14.5" stroke="white" stroke-width="1.5" stroke-linecap="round" stroke-linejoin="round"/>
<path d="M2 11.1651V10.4984C5.89438 11.7984 10.1056 11.7984 14 10.4984V11.1651M2 6.49842C5.89438 5.19844 10.1056 5.19844 14 6.49842" stroke="white" stroke-width="1.5" stroke-linecap="round" stroke-linejoin="round"/>
</svg>
