<svg width="98" height="42" viewBox="0 0 98 42" fill="none" xmlns="http://www.w3.org/2000/svg">
<path d="M36.0606 23.568L33.7632 17.6153C33.6952 17.4383 33.6237 17.2341 33.5488 17.0026C33.4739 16.7644 33.4025 16.5125 33.3344 16.2471C33.1915 16.7984 33.0451 17.2579 32.8953 17.6255L30.598 23.568H36.0606ZM40.1857 29H38.6541C38.4771 29 38.3342 28.9558 38.2252 28.8673C38.1163 28.7788 38.0346 28.6665 37.9802 28.5303L36.612 24.9975H30.0466L28.6784 28.5303C28.6376 28.6528 28.5593 28.7618 28.4436 28.8571C28.3278 28.9524 28.1849 29 28.0147 29H26.4831L32.3338 14.3683H34.335L40.1857 29ZM43.4695 26.5086C43.803 26.9579 44.1672 27.2744 44.562 27.4582C44.9568 27.642 45.3993 27.7339 45.8894 27.7339C46.856 27.7339 47.5979 27.3901 48.1153 26.7026C48.6326 26.0151 48.8913 25.0349 48.8913 23.762C48.8913 23.0881 48.83 22.5095 48.7075 22.0262C48.5917 21.5429 48.4216 21.1481 48.1969 20.8418C47.9723 20.5287 47.6966 20.3006 47.3699 20.1577C47.0432 20.0147 46.6722 19.9433 46.2569 19.9433C45.6647 19.9433 45.144 20.0794 44.6947 20.3517C44.2523 20.624 43.8439 21.0086 43.4695 21.5055V26.5086ZM43.3776 20.2598C43.8132 19.722 44.3169 19.2898 44.8887 18.9631C45.4605 18.6363 46.114 18.4729 46.8491 18.4729C47.4482 18.4729 47.9893 18.5887 48.4726 18.8201C48.9559 19.0447 49.3677 19.3817 49.7081 19.8309C50.0484 20.2734 50.3105 20.8248 50.4943 21.4851C50.6781 22.1453 50.77 22.9043 50.77 23.762C50.77 24.5244 50.6679 25.2357 50.4637 25.896C50.2595 26.5495 49.9634 27.1179 49.5754 27.6012C49.1942 28.0776 48.7245 28.4554 48.1663 28.7345C47.6149 29.0068 46.9921 29.1429 46.2978 29.1429C45.6647 29.1429 45.1202 29.0374 44.6641 28.8264C44.2148 28.6086 43.8166 28.3091 43.4695 27.9279V32.5022H41.6418V18.6567H42.7343C42.993 18.6567 43.1529 18.7827 43.2142 19.0345L43.3776 20.2598ZM54.9164 26.5086C55.25 26.9579 55.6141 27.2744 56.009 27.4582C56.4038 27.642 56.8462 27.7339 57.3363 27.7339C58.3029 27.7339 59.0449 27.3901 59.5622 26.7026C60.0795 26.0151 60.3382 25.0349 60.3382 23.762C60.3382 23.0881 60.277 22.5095 60.1544 22.0262C60.0387 21.5429 59.8685 21.1481 59.6439 20.8418C59.4193 20.5287 59.1436 20.3006 58.8168 20.1577C58.4901 20.0147 58.1191 19.9433 57.7039 19.9433C57.1117 19.9433 56.591 20.0794 56.1417 20.3517C55.6992 20.624 55.2908 21.0086 54.9164 21.5055V26.5086ZM54.8245 20.2598C55.2602 19.722 55.7639 19.2898 56.3357 18.9631C56.9075 18.6363 57.561 18.4729 58.2961 18.4729C58.8951 18.4729 59.4363 18.5887 59.9196 18.8201C60.4029 19.0447 60.8147 19.3817 61.1551 19.8309C61.4954 20.2734 61.7575 20.8248 61.9413 21.4851C62.1251 22.1453 62.217 22.9043 62.217 23.762C62.217 24.5244 62.1148 25.2357 61.9106 25.896C61.7064 26.5495 61.4103 27.1179 61.0223 27.6012C60.6411 28.0776 60.1714 28.4554 59.6133 28.7345C59.0619 29.0068 58.4391 29.1429 57.7447 29.1429C57.1117 29.1429 56.5671 29.0374 56.1111 28.8264C55.6618 28.6086 55.2636 28.3091 54.9164 27.9279V32.5022H53.0887V18.6567H54.1813C54.4399 18.6567 54.5999 18.7827 54.6612 19.0345L54.8245 20.2598ZM70.5599 20.3619C70.4782 20.5116 70.3523 20.5865 70.1821 20.5865C70.08 20.5865 69.9643 20.5491 69.835 20.4742C69.7056 20.3993 69.5457 20.3176 69.3551 20.2292C69.1713 20.1339 68.95 20.0488 68.6914 19.9739C68.4327 19.8922 68.1264 19.8514 67.7724 19.8514C67.4661 19.8514 67.1904 19.8922 66.9454 19.9739C66.7003 20.0488 66.4893 20.1543 66.3123 20.2904C66.1422 20.4266 66.0094 20.5865 65.9141 20.7703C65.8256 20.9473 65.7814 21.1413 65.7814 21.3523C65.7814 21.6178 65.8563 21.839 66.006 22.016C66.1626 22.193 66.3668 22.3461 66.6186 22.4755C66.8705 22.6048 67.1564 22.7205 67.4763 22.8226C67.7963 22.9179 68.123 23.0234 68.4565 23.1392C68.7969 23.2481 69.127 23.3706 69.447 23.5067C69.7669 23.6429 70.0528 23.8131 70.3046 24.0173C70.5565 24.2215 70.7573 24.4733 70.9071 24.7728C71.0636 25.0655 71.1419 25.4195 71.1419 25.8347C71.1419 26.3112 71.0568 26.7537 70.8866 27.1621C70.7165 27.5637 70.4646 27.9143 70.1311 28.2138C69.7975 28.5065 69.3891 28.7379 68.9058 28.9081C68.4225 29.0783 67.8643 29.1634 67.2313 29.1634C66.5097 29.1634 65.8563 29.0476 65.2709 28.8162C64.6855 28.578 64.1885 28.2751 63.7801 27.9075L64.209 27.2132C64.2634 27.1247 64.3281 27.0566 64.403 27.0089C64.4778 26.9613 64.5731 26.9375 64.6889 26.9375C64.8114 26.9375 64.9407 26.9851 65.0769 27.0804C65.213 27.1757 65.3764 27.2812 65.567 27.3969C65.7644 27.5127 66.0026 27.6182 66.2817 27.7135C66.5608 27.8088 66.9079 27.8564 67.3232 27.8564C67.6771 27.8564 67.9869 27.8122 68.2523 27.7237C68.5178 27.6284 68.739 27.5025 68.916 27.3459C69.093 27.1893 69.2223 27.0089 69.304 26.8047C69.3925 26.6005 69.4367 26.3827 69.4367 26.1513C69.4367 25.8654 69.3585 25.6305 69.2019 25.4467C69.0522 25.2561 68.8513 25.0962 68.5995 24.9668C68.3476 24.8307 68.0583 24.715 67.7316 24.6197C67.4117 24.5176 67.0815 24.4121 66.7412 24.3032C66.4076 24.1942 66.0775 24.0717 65.7507 23.9356C65.4308 23.7926 65.1449 23.6156 64.8931 23.4046C64.6412 23.1936 64.437 22.9349 64.2804 22.6286C64.1307 22.3155 64.0558 21.9377 64.0558 21.4953C64.0558 21.1005 64.1375 20.7227 64.3009 20.3619C64.4642 19.9943 64.7025 19.6744 65.0156 19.4021C65.3287 19.123 65.7133 18.9018 66.1694 18.7384C66.6255 18.5751 67.1462 18.4934 67.7316 18.4934C68.4123 18.4934 69.0215 18.6023 69.5593 18.8201C70.1038 19.0311 70.5735 19.3238 70.9683 19.6982L70.5599 20.3619ZM78.9758 24.344C78.1385 24.3712 77.4238 24.4393 76.8316 24.5482C76.2462 24.6503 75.7663 24.7865 75.3919 24.9566C75.0243 25.1268 74.7554 25.3276 74.5852 25.5591C74.4219 25.7905 74.3402 26.0492 74.3402 26.3351C74.3402 26.6073 74.3844 26.8422 74.4729 27.0396C74.5614 27.237 74.6805 27.4004 74.8303 27.5297C74.9869 27.6522 75.1672 27.7441 75.3715 27.8054C75.5825 27.8598 75.8071 27.8871 76.0454 27.8871C76.3653 27.8871 76.658 27.8564 76.9235 27.7952C77.1889 27.7271 77.4374 27.6318 77.6688 27.5093C77.9071 27.3867 78.1317 27.2404 78.3427 27.0702C78.5605 26.9 78.7716 26.706 78.9758 26.4882V24.344ZM73.1047 20.1168C73.6765 19.5655 74.2925 19.1536 74.9528 18.8814C75.6131 18.6091 76.3449 18.4729 77.1481 18.4729C77.7267 18.4729 78.2406 18.5682 78.6899 18.7588C79.1391 18.9494 79.5169 19.2149 79.8232 19.5553C80.1296 19.8956 80.361 20.3074 80.5176 20.7907C80.6741 21.274 80.7524 21.805 80.7524 22.3836V29H79.9458C79.7688 29 79.6327 28.9728 79.5374 28.9183C79.4421 28.8571 79.3672 28.7413 79.3127 28.5712L79.1085 27.5909C78.8362 27.8428 78.5708 28.0674 78.3121 28.2648C78.0534 28.4554 77.7811 28.6188 77.4952 28.7549C77.2094 28.8843 76.903 28.983 76.5763 29.0511C76.2564 29.1259 75.899 29.1634 75.5042 29.1634C75.1026 29.1634 74.7248 29.1089 74.3708 29C74.0169 28.8843 73.7071 28.7141 73.4417 28.4895C73.183 28.2648 72.9754 27.9824 72.8188 27.642C72.6691 27.2948 72.5942 26.8864 72.5942 26.4167C72.5942 26.0083 72.7065 25.6169 72.9311 25.2425C73.1558 24.8613 73.52 24.5244 74.0237 24.2317C74.5274 23.939 75.1843 23.7007 75.9943 23.5169C76.8043 23.3264 77.7982 23.2174 78.9758 23.1902V22.3836C78.9758 21.5804 78.8022 20.9745 78.455 20.5661C78.1079 20.1509 77.6008 19.9433 76.9337 19.9433C76.4844 19.9433 76.1066 20.0011 75.8003 20.1168C75.5008 20.2258 75.2387 20.3517 75.0141 20.4946C74.7963 20.6308 74.6057 20.7567 74.4423 20.8724C74.2857 20.9813 74.1292 21.0358 73.9726 21.0358C73.8501 21.0358 73.7446 21.0052 73.6561 20.9439C73.5676 20.8758 73.4927 20.7941 73.4315 20.6988L73.1047 20.1168ZM85.3996 13.9599V29H83.5822V13.9599H85.3996ZM93.9525 24.344C93.1153 24.3712 92.4005 24.4393 91.8083 24.5482C91.2229 24.6503 90.743 24.7865 90.3686 24.9566C90.0011 25.1268 89.7322 25.3276 89.562 25.5591C89.3986 25.7905 89.317 26.0492 89.317 26.3351C89.317 26.6073 89.3612 26.8422 89.4497 27.0396C89.5382 27.237 89.6573 27.4004 89.8071 27.5297C89.9636 27.6522 90.144 27.7441 90.3482 27.8054C90.5592 27.8598 90.7839 27.8871 91.0221 27.8871C91.3421 27.8871 91.6348 27.8564 91.9002 27.7952C92.1657 27.7271 92.4142 27.6318 92.6456 27.5093C92.8838 27.3867 93.1085 27.2404 93.3195 27.0702C93.5373 26.9 93.7483 26.706 93.9525 26.4882V24.344ZM88.0815 20.1168C88.6533 19.5655 89.2693 19.1536 89.9296 18.8814C90.5899 18.6091 91.3216 18.4729 92.1249 18.4729C92.7035 18.4729 93.2174 18.5682 93.6666 18.7588C94.1159 18.9494 94.4937 19.2149 94.8 19.5553C95.1063 19.8956 95.3378 20.3074 95.4943 20.7907C95.6509 21.274 95.7292 21.805 95.7292 22.3836V29H94.9225C94.7456 29 94.6094 28.9728 94.5141 28.9183C94.4188 28.8571 94.3439 28.7413 94.2895 28.5712L94.0853 27.5909C93.813 27.8428 93.5475 28.0674 93.2889 28.2648C93.0302 28.4554 92.7579 28.6188 92.472 28.7549C92.1861 28.8843 91.8798 28.983 91.5531 29.0511C91.2331 29.1259 90.8758 29.1634 90.481 29.1634C90.0794 29.1634 89.7016 29.1089 89.3476 29C88.9936 28.8843 88.6839 28.7141 88.4184 28.4895C88.1598 28.2648 87.9522 27.9824 87.7956 27.642C87.6458 27.2948 87.571 26.8864 87.571 26.4167C87.571 26.0083 87.6833 25.6169 87.9079 25.2425C88.1325 24.8613 88.4967 24.5244 89.0004 24.2317C89.5042 23.939 90.161 23.7007 90.9711 23.5169C91.7811 23.3264 92.7749 23.2174 93.9525 23.1902V22.3836C93.9525 21.5804 93.779 20.9745 93.4318 20.5661C93.0846 20.1509 92.5775 19.9433 91.9104 19.9433C91.4612 19.9433 91.0834 20.0011 90.7771 20.1168C90.4776 20.2258 90.2155 20.3517 89.9909 20.4946C89.773 20.6308 89.5824 20.7567 89.4191 20.8724C89.2625 20.9813 89.1059 21.0358 88.9494 21.0358C88.8269 21.0358 88.7214 21.0052 88.6329 20.9439C88.5444 20.8758 88.4695 20.7941 88.4082 20.6988L88.0815 20.1168Z" fill="#F24E1E"/>
<path d="M21.4038 32.8736V18.4468C21.4038 4.26045 1 3.85973 1 18.4468V32.8736" stroke="#F24E1E" stroke-width="1.8562"/>
<path d="M1 31.9453H21.4211" stroke="#F24E1E" stroke-width="1.85832"/>
<path d="M4.65625 24.0312L17.1684 24.0313" stroke="#F24E1E" stroke-width="1.8562"/>
<path d="M5.40039 31.9609L5.40039 23.0017" stroke="#F24E1E" stroke-width="1.8562"/>
<path d="M5.40039 32.5781L5.40039 23.6189" stroke="#F24E1E" stroke-width="1.8562"/>
<path d="M16.4004 31.9609L16.4004 22.9893" stroke="#F24E1E" stroke-width="1.8562"/>
<path d="M16.4004 32.5781L16.4004 23.6065" stroke="#F24E1E" stroke-width="1.8562"/>
<path d="M5.38672 23.0174C5.38672 22.1503 5.63437 18.2038 7.69122 16.105C9.74807 14.0061 10.9106 11.4453 10.9106 11.4453C10.9106 11.4453 11.9363 13.3416 14.2202 16.105C16.5041 18.8683 16.4002 22.4211 16.4002 23.0775" stroke="#F24E1E" stroke-width="1.8562"/>
</svg>
